<?xml version="1.0" encoding="UTF-8"?>
<svg id="Layer_1" data-name="Layer 1" xmlns="http://www.w3.org/2000/svg" viewBox="0 0 600 216.59">
  <defs>
    <style>
      .cls-1 {
        fill: #ffd561;
      }

      .cls-2 {
        fill: #1d1616;
      }
    </style>
  </defs>
  <g>
    <g>
      <path class="cls-2" d="M215.07,37.47v-4.74h29.69v4.74h-11.89v40.29h-5.91V37.47h-11.89Z"/>
      <path class="cls-2" d="M258.47,59.17v18.58h-5.91V32.73h14.62c5.07,0,8.93,1.23,11.6,3.7,2.66,2.47,4,5.49,4,9.06s-.97,6.55-2.92,8.93c-1.95,2.38-4.87,3.88-8.77,4.48l12.41,18.84h-7.41l-11.83-18.58h-5.78Zm0-21.7v17.02h8.71c3.25,0,5.66-.75,7.24-2.24,1.58-1.49,2.37-3.58,2.37-6.27,0-5.67-3.21-8.51-9.62-8.51h-8.71Z"/>
      <path class="cls-2" d="M323.71,77.75l-3.51-9.88h-20.01l-3.51,9.88h-6.04l16.37-45.03h6.5l16.31,45.03h-6.11Zm-21.83-14.55h16.63l-8.32-23.26-8.32,23.26Z"/>
      <path class="cls-2" d="M351.78,32.73c7.28,0,13.02,2.04,17.22,6.11,4.2,4.07,6.3,9.62,6.3,16.63s-2.1,12.49-6.3,16.41c-4.2,3.92-9.94,5.88-17.22,5.88h-14.23V32.73h14.23Zm-8.32,40.48h8.32c5.67,0,10.01-1.56,13-4.68,2.99-3.12,4.48-7.47,4.48-13.06s-1.49-9.94-4.48-13.06c-2.99-3.12-7.32-4.68-13-4.68h-8.32v35.48Z"/>
      <path class="cls-2" d="M406.62,32.73v4.68h-17.93v15.34h15.98v4.61h-15.98v15.72h17.93v4.68h-23.85V32.73h23.85Z"/>
      <path class="cls-2" d="M461.52,32.73v45.03h-5.98V44.94l-15.07,32.81h-3.83l-15.14-32.81v32.81h-5.91V32.73h6.04l16.96,36.91,16.89-36.91h6.04Z"/>
      <path class="cls-2" d="M502.33,77.75l-3.51-9.88h-20.01l-3.51,9.88h-6.04l16.37-45.03h6.5l16.31,45.03h-6.11Zm-21.83-14.55h16.63l-8.32-23.26-8.32,23.26Z"/>
      <path class="cls-2" d="M522.08,59.17v18.58h-5.91V32.73h14.62c5.07,0,8.93,1.23,11.6,3.7,2.66,2.47,4,5.49,4,9.06s-.97,6.55-2.92,8.93c-1.95,2.38-4.87,3.88-8.77,4.48l12.41,18.84h-7.41l-11.83-18.58h-5.78Zm0-21.7v17.02h8.71c3.25,0,5.66-.75,7.24-2.24,1.58-1.49,2.37-3.58,2.37-6.27,0-5.67-3.21-8.51-9.62-8.51h-8.71Z"/>
      <path class="cls-2" d="M562.17,77.75h-5.91V32.73h5.91v20.86l18.52-20.86h7.73l-21.05,22.81,21.05,22.22h-7.86l-18.39-20.14v20.14Z"/>
    </g>
    <g>
      <path class="cls-2" d="M264.82,189.47c-13.48,0-25.64-5.04-35.18-14.57-9.53-9.53-14.57-21.7-14.57-35.17s5.04-25.64,14.57-35.17c9.53-9.53,21.7-14.57,35.18-14.57,7.78,0,15.6,1.85,22.6,5.36,7.09,3.71,12.89,8.69,17.75,15.23l.63,.85-15.31,11.07-.61-.85c-2.76-3.83-6.34-6.89-10.96-9.37-4.32-2.31-9.06-3.48-14.1-3.48-8.08,0-15.8,3.27-21.73,9.21-5.94,5.94-9.21,13.65-9.21,21.73s3.18,15.87,9.21,21.9c5.92,5.92,13.43,9.04,21.73,9.04,5.46,0,10.34-1.19,14.92-3.65,4.6-2.38,8.44-5.75,11.45-10.01l.59-.83,15.49,10.51-.59,.86c-4.81,7.05-10.96,12.51-18.26,16.25-7.05,3.77-14.99,5.69-23.6,5.69Z"/>
      <path class="cls-1" d="M305.81,166.95c-4.59,6.72-10.5,12.13-17.87,15.91-7.05,3.77-14.76,5.58-23.12,5.58-13.61,0-25.42-5.25-34.44-14.27s-14.27-20.83-14.27-34.44,5.25-25.42,14.27-34.44c9.02-9.02,20.83-14.27,34.44-14.27,8.04,0,15.58,1.97,22.14,5.25,6.89,3.61,12.63,8.53,17.38,14.92l-13.61,9.84c-2.95-4.1-6.72-7.22-11.32-9.68s-9.51-3.61-14.59-3.61c-8.69,0-16.56,3.61-22.47,9.51-5.9,5.9-9.51,13.78-9.51,22.47s3.61,16.73,9.51,22.63c5.74,5.74,13.45,9.35,22.47,9.35,5.74,0,10.82-1.31,15.42-3.77,4.76-2.46,8.69-5.91,11.81-10.33l13.78,9.35Zm-13.78-9.35l13.78,9.35-13.78-9.35Z"/>
      <polygon class="cls-2" points="356.26 187.34 356.26 149.95 329.81 149.95 329.81 187.34 310.83 187.34 310.83 92.93 329.81 92.93 329.81 131.14 356.26 131.14 356.26 92.93 375.07 92.93 375.07 187.34 356.26 187.34"/>
      <path class="cls-1" d="M328.76,93.97v38.21h28.54v-38.21h16.73v92.33h-16.73v-37.39h-28.54v37.39h-16.89V93.97h16.89Zm-16.89,0h0Z"/>
      <path class="cls-2" d="M451.44,187.34l-10.33-20.99h-31.16l-9.84,20.99h-20.67l36.94-78.23,8.47-17.86,8.66,17.68,38.62,78.41h-20.69Zm-19.22-38.81l-7.01-14.42-6.75,14.42h13.76Z"/>
      <path class="cls-1" d="M441.75,165.31h-32.47l-9.84,20.99h-18.37l36.24-76.75,7.54-15.91,7.71,15.74,37.88,76.91h-18.37l-10.33-20.99Zm-24.93-15.74h17.06l-8.69-17.88-8.36,17.88Zm8.36-17.88l-8.36,17.88,8.36-17.88Z"/>
      <path class="cls-2" d="M503.94,186.82c-4.92,0-9.8-1.11-14.1-3.2-5.97-2.8-10.8-7.33-13.59-12.76-.98-1.79-1.48-3.1-2.18-5.04-.52-1.56-.86-3.37-1.2-5.61l-.16-1.04,18.64-2.58,.15,1.03c.12,.87,.35,1.53,.52,2.01l.09,.27c.04,.12,.08,.26,.13,.42,.13,.44,.29,.99,.6,1.5,1.44,2.39,3.1,3.97,5.09,4.82,1.98,.93,4.08,1.42,6.09,1.42,.69,0,1.37-.06,2.01-.17,2.46-.46,4.21-1.36,5.84-2.99,1.47-1.47,2.34-3.35,2.65-5.73,0-1.59-.13-2.92-.73-4.27-.54-1.22-1.39-2.75-3.18-3.79l-.15-.09-.11-.13c-.74-.87-1.78-1.31-2.78-1.73l-.29-.12c-1.59-.58-3.07-1.08-4.95-1.59-2.47-.49-4.82-1.33-6.99-2.17-3.01-1.06-5.69-2.9-8.12-4.73-3.57-2.92-6.03-6.06-8.02-10.22-1.92-4.38-2.73-8.69-2.39-12.83,.5-5.88,3.17-11.69,7.49-16.37,4.55-4.56,9.94-7.25,16.05-8.03,1.35-.19,2.75-.29,4.14-.29,4.52,0,9.13,1.04,13.32,3.01,5.42,2.62,9.59,6.57,12.76,12.07l.53,.92-16.58,9.03-.51-.87c-.92-1.58-2.22-2.78-4.33-4.02-2.02-.88-3.84-1.3-5.56-1.3-.46,0-.92,.03-1.37,.09-1.81,.28-3.44,1.12-4.81,2.49-1.31,1.31-2.01,2.86-2.16,4.75-.16,1.43,.02,2.63,.52,3.51l.05,.11c.45,1.05,1.39,2.24,2.65,3.37,.92,.65,2.05,1.26,3.37,1.83,1.6,.58,3.08,1.08,4.95,1.59,.59,.17,1.16,.32,1.73,.48,1.72,.46,3.51,.94,5.29,1.7,2.89,1.08,5.59,2.69,7.98,4.76,3.94,3.09,6.78,6.65,8.63,10.86,1.97,4.44,2.73,8.71,2.38,13.45-.68,6.69-3.31,12.52-7.82,17.36-4.4,4.75-10.29,7.7-17.04,8.52-1.48,.21-3,.31-4.52,.31Z"/>
      <path class="cls-1" d="M514.89,116.44c-1.15-1.97-2.79-3.28-4.76-4.43-2.62-1.15-5.08-1.64-7.54-1.31-2.13,.33-3.94,1.31-5.41,2.79s-2.3,3.28-2.46,5.41c-.16,1.48,0,2.95,.65,4.1,.49,1.15,1.48,2.46,2.95,3.77,1.15,.82,2.46,1.48,3.61,1.97,1.8,.66,3.28,1.15,5.08,1.64,2.3,.66,4.59,1.15,6.89,2.13,2.63,.98,5.25,2.46,7.71,4.59,3.77,2.95,6.56,6.4,8.36,10.5,1.97,4.43,2.62,8.53,2.3,12.96-.65,6.4-3.12,11.97-7.54,16.73-4.1,4.43-9.68,7.38-16.4,8.2-5.91,.82-12.3,0-18.04-2.79-5.25-2.46-10.17-6.56-13.12-12.3-.98-1.8-1.48-3.12-2.13-4.92-.49-1.48-.82-3.28-1.15-5.41l16.56-2.3c.16,1.15,.49,1.97,.66,2.46s.33,1.31,.82,2.13c1.48,2.46,3.28,4.26,5.58,5.25,2.79,1.31,5.9,1.8,8.69,1.31,2.62-.49,4.59-1.48,6.39-3.28,1.64-1.64,2.62-3.77,2.95-6.4,0-1.8-.16-3.28-.82-4.76-.66-1.48-1.64-3.12-3.61-4.26-.98-1.15-2.3-1.64-3.44-2.13-1.8-.66-3.28-1.15-5.08-1.64-2.46-.49-4.76-1.31-6.89-2.13-2.79-.98-5.25-2.62-7.87-4.59-3.61-2.95-5.9-6.07-7.71-9.84-1.8-4.1-2.62-8.2-2.3-12.3,.49-5.74,3.12-11.31,7.22-15.74,3.94-3.94,9.02-6.89,15.42-7.71,5.74-.82,11.64,.16,16.89,2.63,5.09,2.46,9.18,6.23,12.3,11.64l-14.76,8.03Zm0,0l14.76-8.03-14.76,8.03Z"/>
      <polygon class="cls-2" points="536.15 187.34 536.15 92.77 588.41 92.77 588.41 111.57 554.95 111.57 554.95 131.14 579.88 131.14 579.88 149.95 554.95 149.95 554.95 168.37 588.41 168.37 588.41 187.34 536.15 187.34"/>
      <path class="cls-1" d="M553.91,132.18h24.93v16.73h-24.93v20.5h33.46v16.89h-50.18V93.81h50.18v16.73h-33.46v21.65Zm0-21.65v0Z"/>
    </g>
  </g>
  <g>
    <polygon class="cls-2" points="98.73 197.15 89.59 181.01 80.06 197.15 11.58 197.15 110.89 25.05 123.44 48.8 49.3 176.6 66.45 176.8 89.39 135.84 124.66 197.15 98.73 197.15"/>
    <g>
      <polygon class="cls-2" points="141.74 197.15 97.92 121.44 132.3 62.09 155.8 103.18 142.74 125.8 132.13 107.23 124.4 121.23 155.76 176.63 171.73 176.63 161.66 158.71 174.92 136.14 210.09 197.15 141.74 197.15"/>
      <g>
        <polygon class="cls-1" points="15.18 195.07 110.81 29.35 121.06 48.76 45.72 178.64 67.66 178.9 89.41 140.06 121.06 195.07 99.94 195.07 89.63 176.86 78.87 195.07 15.18 195.07"/>
        <polygon class="cls-1" points="206.49 195.07 142.94 195.07 100.32 121.44 132.29 66.26 153.41 103.17 142.75 121.63 132.1 102.98 122.01 121.25 154.55 178.71 175.29 178.71 164.06 158.73 174.91 140.27 206.49 195.07"/>
      </g>
    </g>
  </g>
</svg>