<?xml version="1.0" encoding="UTF-8"?>
<svg id="Layer_1" data-name="Layer 1" xmlns="http://www.w3.org/2000/svg" viewBox="0 0 600 216.59">
  <defs>
    <style>
      .cls-1 {
        fill: #fff;
      }

      .cls-2 {
        fill: #ffd561;
      }
    </style>
  </defs>
  <g>
    <g>
      <path class="cls-1" d="M207.97,31.8v-4.85h30.39v4.85h-12.17v41.23h-6.05V31.8h-12.17Z"/>
      <path class="cls-1" d="M252.39,54.01v19.02h-6.05V26.95h14.96c5.19,0,9.14,1.26,11.87,3.79,2.73,2.53,4.09,5.62,4.09,9.28s-1,6.71-2.99,9.14c-2,2.44-4.99,3.97-8.98,4.59l12.7,19.28h-7.58l-12.1-19.02h-5.92Zm0-22.21v17.42h8.91c3.32,0,5.8-.76,7.41-2.29,1.62-1.53,2.43-3.67,2.43-6.42,0-5.81-3.28-8.71-9.84-8.71h-8.91Z"/>
      <path class="cls-1" d="M319.15,73.03l-3.59-10.11h-20.48l-3.59,10.11h-6.18l16.76-46.08h6.65l16.69,46.08h-6.25Zm-22.34-14.9h17.02l-8.51-23.81-8.51,23.81Z"/>
      <path class="cls-1" d="M347.88,26.95c7.45,0,13.32,2.08,17.62,6.25,4.3,4.17,6.45,9.84,6.45,17.02s-2.15,12.78-6.45,16.79c-4.3,4.01-10.17,6.02-17.62,6.02h-14.56V26.95h14.56Zm-8.51,41.43h8.51c5.81,0,10.24-1.6,13.3-4.79,3.06-3.19,4.59-7.65,4.59-13.37s-1.53-10.17-4.59-13.37c-3.06-3.19-7.49-4.79-13.3-4.79h-8.51v36.31Z"/>
      <path class="cls-1" d="M404.01,26.95v4.79h-18.35v15.69h16.36v4.72h-16.36v16.09h18.35v4.79h-24.4V26.95h24.4Z"/>
      <path class="cls-1" d="M460.2,26.95v46.08h-6.12V39.45l-15.43,33.58h-3.92l-15.49-33.58v33.58h-6.05V26.95h6.18l17.36,37.77,17.29-37.77h6.18Z"/>
      <path class="cls-1" d="M501.96,73.03l-3.59-10.11h-20.48l-3.59,10.11h-6.18l16.76-46.08h6.65l16.69,46.08h-6.25Zm-22.34-14.9h17.02l-8.51-23.81-8.51,23.81Z"/>
      <path class="cls-1" d="M522.18,54.01v19.02h-6.05V26.95h14.96c5.19,0,9.14,1.26,11.87,3.79,2.73,2.53,4.09,5.62,4.09,9.28s-1,6.71-2.99,9.14c-2,2.44-4.99,3.97-8.98,4.59l12.7,19.28h-7.58l-12.1-19.02h-5.92Zm0-22.21v17.42h8.91c3.32,0,5.8-.76,7.41-2.29,1.62-1.53,2.43-3.67,2.43-6.42,0-5.81-3.28-8.71-9.84-8.71h-8.91Z"/>
      <path class="cls-1" d="M563.21,73.03h-6.05V26.95h6.05v21.35l18.95-21.35h7.91l-21.55,23.34,21.55,22.74h-8.05l-18.82-20.62v20.62Z"/>
    </g>
    <g>
      <path class="cls-2" d="M300.84,164.32c-4.7,6.88-10.74,12.42-18.29,16.28-7.22,3.86-15.11,5.71-23.67,5.71-13.93,0-26.02-5.37-35.25-14.6-9.23-9.23-14.6-21.32-14.6-35.25s5.37-26.01,14.6-35.24c9.23-9.23,21.32-14.6,35.25-14.6,8.22,0,15.94,2.01,22.66,5.37,7.05,3.69,12.92,8.73,17.79,15.27l-13.93,10.07c-3.02-4.19-6.88-7.38-11.58-9.9-4.7-2.52-9.73-3.69-14.94-3.69-8.9,0-16.95,3.69-23,9.73-6.04,6.04-9.73,14.1-9.73,22.99s3.69,17.12,9.73,23.16c5.87,5.87,13.76,9.57,23,9.57,5.87,0,11.08-1.34,15.78-3.86,4.87-2.52,8.89-6.04,12.08-10.57l14.1,9.57Zm-14.1-9.57l14.1,9.57-14.1-9.57Z"/>
      <path class="cls-2" d="M324.33,89.63v39.11h29.21v-39.11h17.12v94.49h-17.12v-38.27h-29.21v38.27h-17.29V89.63h17.29Zm-17.29,0h0Z"/>
      <path class="cls-2" d="M439.96,162.64h-33.23l-10.07,21.48h-18.8l37.09-78.55,7.72-16.28,7.89,16.11,38.77,78.72h-18.8l-10.57-21.48Zm-25.51-16.11h17.46l-8.9-18.3-8.56,18.3Zm8.56-18.3l-8.56,18.3,8.56-18.3Z"/>
      <path class="cls-2" d="M514.81,112.62c-1.17-2.01-2.85-3.35-4.87-4.53-2.68-1.17-5.2-1.68-7.72-1.34-2.18,.34-4.03,1.34-5.54,2.85-1.51,1.51-2.35,3.36-2.52,5.54-.17,1.51,0,3.02,.67,4.2,.5,1.17,1.51,2.52,3.02,3.86,1.17,.84,2.52,1.51,3.69,2.01,1.85,.67,3.36,1.17,5.2,1.68,2.35,.67,4.7,1.17,7.05,2.18,2.69,1.01,5.37,2.52,7.89,4.7,3.86,3.02,6.71,6.55,8.56,10.74,2.01,4.53,2.68,8.73,2.35,13.26-.67,6.55-3.19,12.25-7.72,17.12-4.2,4.53-9.9,7.55-16.78,8.39-6.04,.84-12.59,0-18.46-2.85-5.37-2.52-10.41-6.71-13.43-12.59-1.01-1.85-1.51-3.19-2.18-5.04-.5-1.51-.84-3.35-1.17-5.54l16.95-2.35c.17,1.17,.5,2.01,.67,2.52s.34,1.34,.84,2.18c1.51,2.52,3.36,4.36,5.71,5.37,2.85,1.34,6.04,1.85,8.9,1.34,2.68-.5,4.7-1.51,6.54-3.35,1.68-1.68,2.68-3.86,3.02-6.55,0-1.84-.17-3.36-.84-4.87-.67-1.51-1.68-3.19-3.69-4.36-1.01-1.17-2.35-1.68-3.52-2.18-1.85-.67-3.36-1.17-5.2-1.68-2.52-.5-4.87-1.34-7.05-2.18-2.85-1.01-5.37-2.68-8.06-4.7-3.69-3.02-6.04-6.21-7.89-10.07-1.84-4.2-2.68-8.39-2.35-12.59,.5-5.87,3.19-11.58,7.39-16.11,4.03-4.03,9.23-7.05,15.78-7.89,5.87-.84,11.92,.17,17.29,2.69,5.2,2.52,9.4,6.38,12.59,11.92l-15.11,8.22Zm0,0l15.11-8.22-15.11,8.22Z"/>
      <path class="cls-2" d="M554.75,128.73h25.51v17.12h-25.51v20.98h34.24v17.29h-51.36V89.46h51.36v17.12h-34.24v22.16Zm0-22.16v0Z"/>
    </g>
  </g>
  <g>
    <polygon class="cls-2" points="9.93 193.1 107.8 23.49 118.29 43.35 41.18 176.29 63.64 176.55 85.9 136.8 118.29 193.1 96.68 193.1 86.13 174.46 75.11 193.1 9.93 193.1"/>
    <polygon class="cls-2" points="205.72 193.1 140.69 193.1 97.07 117.74 129.78 61.27 151.4 99.05 140.49 117.93 129.59 98.85 119.27 117.54 152.56 176.35 173.79 176.35 162.3 155.9 173.4 137.02 205.72 193.1"/>
  </g>
</svg>