<svg width="13" height="12" viewBox="0 0 13 12" fill="none" xmlns="http://www.w3.org/2000/svg">
<path d="M6.20457 2.87318C4.47124 2.87318 3.07235 4.18381 3.07235 5.8078C3.07235 7.43178 4.47124 8.74241 6.20457 8.74241C7.9379 8.74241 9.33679 7.43178 9.33679 5.8078C9.33679 4.18381 7.9379 2.87318 6.20457 2.87318ZM6.20457 7.71508C5.08363 7.71508 4.16886 6.85802 4.16886 5.8078C4.16886 4.75757 5.08363 3.90051 6.20457 3.90051C7.32551 3.90051 8.24028 4.75757 8.24028 5.8078C8.24028 6.85802 7.32551 7.71508 6.20457 7.71508ZM9.46507 2.06906C9.06037 2.06906 8.73356 2.37526 8.73356 2.75442C8.73356 3.13359 9.06037 3.43979 9.46507 3.43979C9.86977 3.43979 10.1966 3.13502 10.1966 2.75442C10.1967 2.66439 10.1779 2.57522 10.1411 2.49201C10.1044 2.40881 10.0505 2.33321 9.9826 2.26955C9.91465 2.20588 9.83396 2.1554 9.74515 2.121C9.65635 2.0866 9.56117 2.06895 9.46507 2.06906ZM12.3102 5.8078C12.3102 5.01798 12.3178 4.23532 12.2705 3.44694C12.2231 2.53122 12.0002 1.71851 11.2855 1.04889C10.5692 0.37783 9.70331 0.170361 8.72592 0.126006C7.88293 0.0816504 7.04757 0.0888045 6.2061 0.0888045C5.3631 0.0888045 4.52774 0.0816504 3.68628 0.126006C2.70889 0.170361 1.84146 0.379261 1.12675 1.04889C0.410504 1.71994 0.189065 2.53122 0.141723 3.44694C0.0943809 4.23675 0.102017 5.01941 0.102017 5.8078C0.102017 6.59618 0.0943809 7.38027 0.141723 8.16865C0.189065 9.08438 0.412031 9.89708 1.12675 10.5667C1.84299 11.2378 2.70889 11.4452 3.68628 11.4896C4.52927 11.5339 5.36463 11.5268 6.2061 11.5268C7.04909 11.5268 7.88445 11.5339 8.72592 11.4896C9.70331 11.4452 10.5707 11.2363 11.2855 10.5667C12.0017 9.89565 12.2231 9.08438 12.2705 8.16865C12.3193 7.38027 12.3102 6.59761 12.3102 5.8078ZM10.9663 9.18167C10.8548 9.44208 10.7204 9.63667 10.5051 9.83699C10.2897 10.0387 10.0836 10.1646 9.80563 10.2691C9.00234 10.5681 7.09491 10.5009 6.20457 10.5009C5.31423 10.5009 3.40528 10.5681 2.60199 10.2705C2.32404 10.1661 2.11635 10.0402 1.90255 9.83842C1.68722 9.63667 1.55282 9.44351 1.44134 9.1831C1.12369 8.42906 1.19547 6.64196 1.19547 5.8078C1.19547 4.97363 1.12369 3.1851 1.44134 2.43249C1.55282 2.17208 1.68722 1.97749 1.90255 1.77717C2.11788 1.57686 2.32404 1.44952 2.60199 1.34507C3.40528 1.04745 5.31423 1.1147 6.20457 1.1147C7.09491 1.1147 9.00387 1.04745 9.80716 1.34507C10.0851 1.44952 10.2928 1.57543 10.5066 1.77717C10.7219 1.97892 10.8563 2.17208 10.9678 2.43249C11.2855 3.1851 11.2137 4.97363 11.2137 5.8078C11.2137 6.64196 11.2855 8.42906 10.9663 9.18167Z" fill="#000"/>
</svg>
