<svg width="13" height="12" viewBox="0 0 13 12" fill="none" xmlns="http://www.w3.org/2000/svg">
<path fill-rule="evenodd" clip-rule="evenodd" d="M4.63671 4.07424H6.90398V5.13233C7.23057 4.52379 8.06813 3.97701 9.3263 3.97701C11.7382 3.97701 12.3109 5.18838 12.3109 7.41095V11.5272H9.869V7.91712C9.869 6.65141 9.54241 5.93763 8.71095 5.93763C7.55778 5.93763 7.07857 6.70689 7.07857 7.91655V11.5272H4.63671V4.07424ZM0.449528 11.43H2.89139V3.97701H0.449528V11.43ZM3.24118 1.54683C3.24128 1.73859 3.20068 1.92845 3.12177 2.10538C3.04286 2.28231 2.92719 2.44278 2.7815 2.57747C2.48628 2.85236 2.08668 3.00623 1.67046 3.00528C1.25497 3.00502 0.856287 2.85154 0.560632 2.57804C0.415471 2.4429 0.300199 2.28225 0.221423 2.10529C0.142648 1.92834 0.101916 1.73856 0.101562 1.54683C0.101562 1.15963 0.266388 0.789008 0.561243 0.51562C0.856638 0.24175 1.25549 0.0882078 1.67107 0.088379C2.08741 0.088379 2.48665 0.242231 2.7815 0.51562C3.07575 0.789008 3.24118 1.15963 3.24118 1.54683Z" fill="#000"/>
</svg>
