<svg width="58" height="40" viewBox="0 0 58 40" fill="none" xmlns="http://www.w3.org/2000/svg">
<path d="M55.4575 16.47L49.6012 19.3981L42.0195 4.87877L47.9355 1.92081C48.3798 1.69859 48.8938 1.65977 49.3667 1.81277C49.8395 1.96577 50.2333 2.2983 50.4632 2.7388L56.29 13.8973C56.4065 14.1205 56.4773 14.3646 56.4985 14.6153C56.5197 14.8662 56.4907 15.1187 56.4131 15.3583C56.3358 15.5976 56.2112 15.8195 56.0471 16.0103C55.8831 16.2011 55.6827 16.3576 55.4575 16.47Z" stroke="#1D1616" stroke-width="2" stroke-linecap="round" stroke-linejoin="round"/>
<path d="M7.90406 19.1404L2.04777 16.2121C1.82262 16.0997 1.62216 15.9435 1.45807 15.7524C1.29397 15.5616 1.16956 15.34 1.09207 15.1004C1.01456 14.8611 0.985552 14.6083 1.00671 14.3576C1.02786 14.1067 1.09875 13.8628 1.21528 13.6397L7.042 2.48099C7.27203 2.0405 7.66582 1.70796 8.13861 1.55497C8.61138 1.40197 9.12534 1.44076 9.5698 1.663L15.4857 4.62095L7.90406 19.1404Z" stroke="#1D1616" stroke-width="2" stroke-linecap="round" stroke-linejoin="round"/>
<path d="M49.6055 19.3927L45.8146 23.8274L37.0965 32.5456C36.865 32.7771 36.5776 32.9447 36.262 33.0321C35.9466 33.1195 35.614 33.1236 35.2963 33.0442L21.5648 29.6112C21.3073 29.547 21.0661 29.4293 20.857 29.2658L7.90625 19.1387" stroke="#1D1616" stroke-width="2" stroke-linecap="round" stroke-linejoin="round"/>
<path d="M45.8127 23.8292L35.3879 16.2476L32.3552 18.5221C31.0431 19.5062 29.4469 20.0384 27.8062 20.0384C26.1658 20.0384 24.5696 19.5062 23.2573 18.5221L21.973 17.5587C21.7558 17.3959 21.5761 17.1882 21.4461 16.9496C21.3161 16.7113 21.2389 16.4477 21.2196 16.1768C21.2004 15.9059 21.2395 15.634 21.3345 15.3797C21.4295 15.1252 21.578 14.8942 21.77 14.7022L31.0421 5.43016C31.218 5.25413 31.427 5.11453 31.657 5.01928C31.8869 4.92403 32.1334 4.875 32.3823 4.875H42.0219" stroke="#1D1616" stroke-width="2" stroke-linecap="round" stroke-linejoin="round"/>
<path d="M15.6211 4.62054L27.7802 1.07576C28.2146 0.949118 28.6799 0.982048 29.0921 1.16856L37.2823 4.87448" stroke="#1D1616" stroke-width="2" stroke-linecap="round" stroke-linejoin="round"/>
<path d="M24.9632 38.0471L17.8224 36.2619C17.5326 36.1894 17.2641 36.0496 17.0386 35.8535L11.6953 31.209" stroke="#1D1616" stroke-width="2" stroke-linecap="round" stroke-linejoin="round"/>
</svg>
