<svg width="41" height="41" viewBox="0 0 41 41" fill="none" xmlns="http://www.w3.org/2000/svg">
<path d="M20.5 0C16.4455 0 12.482 1.2023 9.11082 3.45486C5.73961 5.70744 3.11209 8.90908 1.56048 12.655C0.00887799 16.4008 -0.397083 20.5227 0.393909 24.4993C1.1849 28.4759 3.13734 32.1286 6.00433 34.9957C8.87129 37.8626 12.524 39.8151 16.5007 40.6061C20.4772 41.397 24.5992 40.9911 28.3449 39.4395C32.0909 37.8879 35.2926 35.2604 37.5451 31.8891C39.7977 28.5179 41 24.5545 41 20.5C41 17.8079 40.4697 15.1421 39.4395 12.655C38.4094 10.1678 36.8994 7.90791 34.9958 6.0043C33.0921 4.10071 30.8322 2.59068 28.3449 1.56046C25.8579 0.530252 23.1921 0 20.5 0ZM20.5 36.9C17.2565 36.9 14.0856 35.9381 11.3887 34.1362C8.6917 32.334 6.58967 29.7727 5.34839 26.776C4.10712 23.7794 3.78233 20.4817 4.41513 17.3005C5.04792 14.1192 6.60988 11.197 8.90346 8.90345C11.197 6.60987 14.1192 5.04791 17.3006 4.41512C20.4818 3.78233 23.7794 4.10709 26.7761 5.34836C29.7728 6.58966 32.334 8.69166 34.1362 11.3886C35.9381 14.0856 36.9 17.2563 36.9 20.5C36.9 24.8495 35.1723 29.021 32.0966 32.0966C29.021 35.172 24.8495 36.9 20.5 36.9ZM21.525 10.25H15.375C14.8313 10.25 14.3099 10.466 13.9254 10.8504C13.541 11.2349 13.325 11.7563 13.325 12.3V28.7C13.325 29.2436 13.541 29.7651 13.9254 30.1495C14.3099 30.5339 14.8313 30.75 15.375 30.75C15.9187 30.75 16.4402 30.5339 16.8246 30.1495C17.2089 29.7651 17.425 29.2436 17.425 28.7V24.6H21.525C22.0687 24.6 22.5902 24.816 22.9746 25.2004C23.3589 25.5848 23.575 26.1063 23.575 26.65V28.7C23.575 29.2436 23.7911 29.7651 24.1754 30.1495C24.5598 30.5339 25.0813 30.75 25.625 30.75C26.1687 30.75 26.6902 30.5339 27.0746 30.1495C27.4589 29.7651 27.675 29.2436 27.675 28.7V26.65C27.666 25.1328 27.0965 23.6726 26.076 22.55C27.0965 21.4274 27.666 19.9672 27.675 18.45V16.4C27.675 14.7689 27.027 13.2046 25.8737 12.0513C24.7203 10.8979 23.1562 10.25 21.525 10.25ZM23.575 18.45C23.575 18.9936 23.3589 19.5152 22.9746 19.8995C22.5902 20.2839 22.0687 20.5 21.525 20.5H17.425V14.35H21.525C22.0687 14.35 22.5902 14.566 22.9746 14.9504C23.3589 15.3349 23.575 15.8563 23.575 16.4V18.45Z" fill="#1D1616"/>
</svg>
