<svg width="37" height="43" viewBox="0 0 37 43" fill="none" xmlns="http://www.w3.org/2000/svg">
<path d="M34.0645 18.2633V3.05C34.0645 1.91781 33.1393 1 31.998 1H3.06653C1.92521 1 1 1.91781 1 3.05V39.95C1 41.0822 1.92521 42 3.06653 42H19.5988" stroke="#1D1616" stroke-width="2" stroke-linecap="round" stroke-linejoin="round"/>
<path d="M7.61328 12.9023H12.9036" stroke="#1D1616" stroke-width="2" stroke-linecap="round"/>
<path d="M20.8398 12.9023H27.4527" stroke="#1D1616" stroke-width="2" stroke-linecap="round"/>
<path d="M7.61328 26.1289H12.9036" stroke="#1D1616" stroke-width="2" stroke-linecap="round"/>
<path d="M7.61328 30.0977H12.9036" stroke="#1D1616" stroke-width="2" stroke-linecap="round"/>
<path d="M10.2578 16.8707V10.2578" stroke="#1D1616" stroke-width="2" stroke-linecap="round"/>
<path d="M30.0977 35.3867L35.388 40.677" stroke="#1D1616" stroke-width="2" stroke-linecap="round"/>
<path d="M22.5831 34.9668C24.9072 37.2909 28.6755 37.2909 30.9998 34.9668C33.3241 32.6425 33.3241 28.8742 30.9998 26.5499C28.6755 24.2256 24.9072 24.2256 22.5831 26.5499C20.2588 28.8742 20.2588 32.6425 22.5831 34.9668Z" stroke="#1D1616" stroke-width="2" stroke-linecap="round" stroke-linejoin="round"/>
</svg>
